<?xml version="1.0" encoding="utf-8"?>
<!-- Svg Vector Icons : http://www.onlinewebfonts.com/icon -->
<!DOCTYPE svg PUBLIC "-//W3C//DTD SVG 1.1//EN" "http://www.w3.org/Graphics/SVG/1.1/DTD/svg11.dtd">
<svg version="1.1" xmlns="http://www.w3.org/2000/svg" xmlns:xlink="http://www.w3.org/1999/xlink" x="0px" y="0px" viewBox="0 0 1000 1000" enable-background="new 0 0 1000 1000" xml:space="preserve">
<metadata> Svg Vector Icons : http://www.onlinewebfonts.com/icon </metadata>
<g><g transform="translate(0.000000,511.000000) scale(0.100000,-0.100000)"><path d="M1153.9,4574.4c-241.6-47.8-459.2-227.2-576.4-473.6c-59.8-131.6-62.2-148.3-69.4-696l-9.6-564.5l-81.3-55c-114.8-78.9-263.1-313.3-296.6-464c-16.7-86.1-23.9-1026.1-19.1-3102.3l7.2-2977.9l62.2-133.9c88.5-189,215.3-318.1,399.4-409l160.3-78.9H5000h4269.5l160.3,78.9c184.2,90.9,310.9,220,399.4,409l62.2,133.9l7.2,2977.9c4.8,2076.1-2.4,3016.1-19.1,3102.3c-31.1,148.3-177,375.5-299,461.6c-64.6,45.4-83.7,76.5-83.7,136.3c0,119.6-47.8,320.5-100.5,423.3c-74.1,143.5-263.1,313.3-418.6,377.9l-138.7,55l-1734.1,12l-1734.1,12l-598,401.8l-598,399.4l-1459-2.4C1914.5,4595.9,1211.3,4586.4,1153.9,4574.4z M8946.6,3325.9c157.9-62.2,315.7-186.6,401.8-318.1c43.1-62.2,71.8-117.2,69.4-122c-4.8-4.8-47.8,9.6-95.7,28.7c-76.5,31.1-595.6,35.9-4322.1,35.9c-3726.5,0-4245.6-4.8-4322.1-35.9c-47.8-19.1-90.9-33.5-95.7-28.7c-2.4,4.8,26.3,59.8,69.4,124.4c124.4,186.6,325.3,310.9,557.3,346.8c67,9.6,1810.7,16.7,3874.8,14.4C8623.7,3368.9,8846.1,3366.5,8946.6,3325.9z M7961.1,1694.6c112.4-47.8,186.6-119.6,251.1-239.2c52.6-95.7,52.6-100.5,59.8-2080.9c4.8-1349-2.4-2023.5-19.1-2104.9c-35.9-162.6-122-279.9-270.3-361.2l-124.4-69.4H5000c-2757.8,0-2860.7,2.4-2949.2,45.4c-107.6,52.6-217.7,157.9-275.1,263.1c-38.3,69.4-40.7,232-40.7,2143.1v2069l52.6,95.7c62.2,117.2,136.3,189,246.4,236.8c74.2,31.1,444.9,35.9,2961.1,38.3C7537.8,1730.5,7882.2,1725.7,7961.1,1694.6z"/><path d="M2153.7-694.9c0-1817.8,4.8-2018.7,38.3-2033.1c47.8-19.1,5568.3-19.1,5616.1,0c33.5,14.4,38.3,215.3,38.3,2033.1v2018.7H5000H2153.7V-694.9z M3375.9,890.9c122-38.3,246.4-143.5,325.3-279.8c86.1-145.9,93.3-397.1,14.3-543c-112.4-210.5-351.6-370.7-557.3-370.7c-203.3,0-452.1,167.4-547.7,368.4c-110,227.2-35.9,578.8,155.5,722.3C2923.9,910.1,3170.2,950.7,3375.9,890.9z M6585.8-553.8l853.9-966.3v-406.6v-409H5000H2560.3v303.8v306.2l507.1,507.1l509.5,509.5L3828-960.4l251.1-251.2l813.2,813.2c447.3,447.3,818,813.2,825.2,810.8C5724.7,412.6,6114.6-22.8,6585.8-553.8z"/></g></g>
</svg>